PathFileType	4	(X/Y/Z)	Kaydara																																																																																																																									
DataRate	CameraRate	NumFrames	NumMarkers	Units	OrigDataRate	OrigDataStartFrame	OrigNumFrames																																																																																																																					
30	30	7	41	mm	30	280	372																																																																																																																					
Frame#	Time	NABA_LFHD			NABA_RFHD			NABA_LBHD			NABA_RBHD			NABA_LFTShould			NABA_RFTShould			NABA_LRRShould			NABA_RRRShould			NABA_T10			NABA_STRN			NABA_TRUN			NABA_LSHO			NABA_LUPA			NABA_LELB			NABA_LFRM			NABA_LWRA			NABA_LWRB			NABA_LFIN			NABA_RSHO			NABA_RUPA			NABA_RELB			NABA_RFRM			NABA_RWRA			NABA_RWRB			NABA_RFIN			NABA_LFWT			NABA_RFWT			NABA_LBWT			NABA_RBWT			NABA_LTHI			NABA_LKNE			NABA_LSHN			NABA_LANK			NABA_LHEE			NABA_LTOE			NABA_RTHI			NABA_RKNE			NABA_RSHN			NABA_RANK			NABA_RHEE			NABA_RTOE		
		X1	Y1	Z1	X2	Y2	Z2	X3	Y3	Z3	X4	Y4	Z4	X5	Y5	Z5	X6	Y6	Z6	X7	Y7	Z7	X8	Y8	Z8	X9	Y9	Z9	X10	Y10	Z10	X11	Y11	Z11	X12	Y12	Z12	X13	Y13	Z13	X14	Y14	Z14	X15	Y15	Z15	X16	Y16	Z16	X17	Y17	Z17	X18	Y18	Z18	X19	Y19	Z19	X20	Y20	Z20	X21	Y21	Z21	X22	Y22	Z22	X23	Y23	Z23	X24	Y24	Z24	X25	Y25	Z25	X26	Y26	Z26	X27	Y27	Z27	X28	Y28	Z28	X29	Y29	Z29	X30	Y30	Z30	X31	Y31	Z31	X32	Y32	Z32	X33	Y33	Z33	X34	Y34	Z34	X35	Y35	Z35	X36	Y36	Z36	X37	Y37	Z37	X38	Y38	Z38	X39	Y39	Z39	X40	Y40	Z40	X41	Y41	Z41
																																																																																																																												
280	9.31	368.36018	1422.64053	866.36414	198.44625	1394.14185	864.73541	383.51574	1506.18927	772.31201	166.20211	1463.29102	796.59409	355.16132	1281.41678	688.83957	220.97015	1279.20792	692.42813	353.44803	1352.22198	580.75676	204.26167	1349.49677	591.92413	283.22384	1199.58763	488.4956	290.08432	1221.50803	730.21103	290.56011	1119.79568	766.90536	454.42951	1308.44833	638.38482	504.0345	1069.40231	587.84874	510.77888	983.73161	606.87309	500.78857	913.38593	580.91286	442.67204	762.96272	650.72578	515.42198	761.92299	647.24503	494.34669	702.01797	686.8293	126.46841	1308.99185	655.13229	67.50666	1104.99596	580.3437	43.67768	983.8192	622.97253	39.03018	890.03799	628.59062	111.58308	763.65005	697.83737	37.58206	752.66724	703.4082	55.77195	715.215	731.91406	410.16235	910.77286	676.09283	146.07977	914.45724	684.81949	354.28833	976.01616	506.9746	184.47405	987.02599	507.80743	390.24971	619.95308	514.96613	381.25786	466.09531	555.85503	313.53519	270.86109	549.42242	326.12629	133.92674	451.8996	263.63174	100.04625	388.44913	296.27243	50.22162	562.46338	130.01932	616.92924	614.92485	153.76683	500.91404	774.50661	160.76414	332.40383	813.82309	147.08361	130.59293	818.70216	191.06852	60.96394	769.15718	193.35438	103.28539	969.61578
281	9.343	367.45865	1422.14828	878.93997	197.48196	1393.76129	877.84332	382.40177	1505.60394	784.76128	165.1296	1462.86224	809.67636	353.79269	1280.74417	701.36536	219.66293	1278.55324	705.68588	351.47236	1351.50818	593.25443	202.35498	1348.72284	605.27252	280.737	1198.77449	501.46133	288.95906	1220.94955	743.14095	289.87791	1119.36638	779.81133	452.80945	1307.73605	650.13474	502.53021	1069.24973	598.04977	509.85126	983.51669	616.67931	500.1635	913.52509	590.05424	444.21154	761.83563	657.92221	516.43127	761.44463	654.32495	495.83958	700.71144	693.29453	124.68193	1308.21259	668.72261	66.42278	1105.18639	591.65333	42.21731	983.51067	632.59483	37.26158	889.74579	636.55796	108.56526	762.36786	705.25703	34.49692	751.07468	708.8102	52.39015	712.87674	736.73264	409.44344	910.19821	687.81044	145.37666	913.07014	698.61275	352.01706	975.83855	519.27856	182.48821	986.18797	521.39549	389.39522	620.3923	524.85924	381.70704	466.29025	564.67697	314.5236	270.66719	554.90898	326.64909	135.92549	454.13422	263.91285	103.32696	390.37601	297.19782	50.14699	563.00545	130.04654	615.18738	626.2167	153.57464	498.57735	784.58809	161.01059	330.70694	824.65668	149.5499	128.82645	831.10397	195.43617	59.28757	783.37799	192.21672	102.8081	983.61511
282	9.377	366.35105	1421.65009	892.73964	196.4513	1393.30597	892.24609	381.06419	1504.92065	798.33023	163.84548	1462.32254	824.08867	352.19223	1279.9765	715.07133	218.04945	1277.7475	720.22148	349.04579	1350.74493	606.93733	200.00439	1347.86041	619.88964	277.84683	1198.00537	515.56732	287.54339	1220.25673	757.2403	288.57304	1118.63907	793.76137	450.80112	1306.95587	663.0085	500.66635	1069.24469	609.01054	508.64044	983.43391	627.09072	499.02027	913.63945	599.85565	444.8344	760.97824	666.84608	516.93161	761.04919	662.49626	497.19841	699.80568	701.0022	122.62305	1307.33093	683.63678	64.98068	1105.42915	604.01531	40.3442	983.13461	643.03017	35.42004	889.29115	645.54382	105.38918	761.31775	714.44641	31.59537	749.58321	715.68352	49.26775	710.74005	743.14819	408.21522	909.73442	700.74387	143.94741	911.61942	713.32916	349.45652	975.71335	532.77676	180.11431	985.28145	535.81474	388.22922	621.18813	535.10868	382.20493	466.6066	573.22681	315.70486	270.71241	560.2993	327.52625	138.20189	456.39874	264.46646	106.82459	392.39677	298.22569	50.09255	563.60889	130.31761	613.27007	637.36095	152.97064	495.46585	794.291	161.26022	328.00053	834.26033	152.11557	125.88068	840.71892	199.92659	56.90902	794.14063	192.09078	99.70286	994.46526
283	9.41	365.15575	1420.95016	907.51129	195.19056	1392.64587	908.05504	379.33891	1504.06281	812.92809	162.24335	1461.55121	839.96033	350.07343	1278.9418	729.96422	215.92167	1276.68091	735.89355	346.07983	1349.70917	621.8576	197.19591	1346.80191	635.74036	274.37311	1196.99783	530.99709	285.69555	1219.19327	772.47314	286.88595	1117.45033	808.83423	448.2621	1306.00677	677.18826	498.38844	1069.23035	620.74696	507.14607	983.31543	638.09761	497.5816	913.69003	610.43724	444.86141	760.31586	677.16263	517.00722	760.73425	671.77597	498.10074	699.08478	710.08095	120.1291	1306.22696	699.83009	63.04195	1105.32875	617.72137	37.94041	982.53738	654.93279	33.11673	888.59528	656.37154	102.28667	760.29869	725.7003	28.64536	748.08151	724.85764	45.98636	708.79227	751.96823	406.40739	908.99475	714.76761	142.09567	909.45534	728.65601	346.59756	975.45891	547.52899	177.18864	984.18076	551.53767	386.99104	622.0919	545.93742	382.51873	467.13097	581.8745	316.89053	270.93119	565.53276	328.44036	140.7298	458.56976	265.23016	110.37135	394.44904	299.259	49.97784	564.21246	130.37555	611.32202	649.52927	152.83963	491.65436	804.6434	161.88429	324.03088	842.93182	154.12973	121.86262	847.70248	202.85374	53.89434	800.86304	193.21045	93.66609	1001.67023
284	9.443	363.63483	1420.07553	923.67973	193.72437	1391.80298	925.3669	377.2673	1503.07175	828.87497	160.31488	1460.64041	857.42371	347.46208	1277.8067	746.11382	213.17974	1275.39352	752.83188	342.78404	1348.81683	638.05847	193.72789	1345.90866	652.72499	270.66216	1196.10756	547.5351	283.25581	1217.90215	788.87413	284.88501	1116.01723	825.07713	445.24204	1304.95346	692.70233	495.62054	1069.16809	633.49445	505.29327	983.09952	650.0943	495.69736	913.50754	622.05811	444.45328	759.57184	688.58505	516.57291	760.31044	682.33032	498.40164	698.44017	720.57503	117.10714	1304.87686	717.19856	60.34379	1104.83154	633.15647	35.0896	981.59195	668.97011	30.31326	887.59277	669.55421	99.45128	757.95761	736.70326	25.55678	746.49963	736.84319	42.73548	707.02629	763.76755	404.48544	907.94464	729.888	140.14822	907.22862	745.20691	343.16639	975.1738	563.2795	173.66499	983.36006	568.49186	385.43732	623.10562	557.37236	382.25422	467.53166	590.78869	317.86095	271.12091	570.81421	329.41971	143.43946	460.89653	266.16129	114.1162	396.57486	300.27859	49.87996	564.85268	129.24803	609.86378	662.91527	153.06674	487.60033	815.60478	162.75579	319.91199	850.81718	155.79039	117.90156	852.62108	204.52049	52.36221	804.1568	195.48044	82.84737	1006.85707
285	9.477	361.61789	1419.40613	941.96457	191.6864	1391.20926	944.52805	374.77188	1502.72552	847.43286	157.98717	1460.30106	877.02797	344.37855	1277.43423	763.75313	210.23569	1274.8156	770.89806	339.4125	1349.36462	656.25153	190.43888	1346.02539	671.60065	267.38899	1197.19208	565.15305	280.50022	1216.93283	806.38306	282.39601	1115.05432	842.44232	442.03762	1304.73114	710.19127	492.29897	1069.73434	647.74879	502.74803	983.58566	663.51456	493.14072	914.0873	635.08953	443.28548	759.52095	701.18202	515.33005	760.54146	694.09714	498.09536	698.55156	732.2126	114.19756	1304.24896	735.95985	57.1125	1104.65317	650.40062	31.97221	981.23093	685.52734	27.20688	887.28813	685.34851	96.08665	757.63496	751.71913	22.2525	745.76225	751.5477	39.59023	705.94299	778.16963	401.60664	907.25891	745.82512	137.44122	907.41768	761.82884	339.66019	975.85312	579.74148	170.36842	985.01083	585.45303	383.26397	624.48517	570.0462	381.14384	468.60664	601.31088	318.21938	272.25843	577.05315	330.83637	147.15415	464.01432	267.71879	119.03856	399.24053	301.48397	49.74183	565.79288	126.54321	611.60976	677.08183	153.27637	486.95084	828.11966	164.14545	319.14055	860.98152	156.9517	117.12501	860.01793	205.00914	53.87155	808.38463	198.19742	73.36749	1013.35457
286	9.51	358.92662	1419.0329	962.38602	188.99534	1390.67734	965.01633	371.84883	1502.95883	868.3226	155.12201	1460.11169	897.96951	341.30791	1277.70813	782.97043	207.24146	1275.04356	790.2002	336.4912	1350.86731	676.34048	187.53365	1347.24472	691.63254	264.48889	1199.43764	583.87199	277.52787	1217.07253	825.26779	279.34834	1115.00183	860.65201	439.13071	1305.92422	729.7094	488.2859	1071.98387	663.5508	499.43577	985.71594	678.26851	489.57676	916.3887	649.22615	441.2516	761.18401	715.08507	513.14812	762.46231	706.62361	497.0121	700.30487	744.66728	111.41157	1305.22812	755.64194	54.00294	1106.27731	669.51767	28.88037	982.67281	704.24507	23.68963	888.9196	703.67653	92.83421	758.58803	767.98271	19.17199	747.00729	769.06776	36.65692	706.735	795.00137	397.8381	907.72194	762.54578	133.69202	909.64897	778.6972	336.42941	977.93465	597.13036	167.4567	988.0761	602.59583	380.74821	626.53725	583.61622	380.02632	470.48538	613.15948	319.14783	274.14145	584.25484	332.24144	152.04771	467.69844	269.15949	125.31886	402.85255	302.92011	49.65811	567.08294	122.99118	614.26308	692.11304	151.7243	487.60509	841.93375	163.47656	318.75553	871.49811	156.62004	116.62929	865.52979	203.94432	55.16955	810.91095	202.9595	64.95644	1017.62321
